<svg xmlns="http://www.w3.org/2000/svg" xmlns:xlink="http://www.w3.org/1999/xlink" id="Layer_1" x="0" y="0" version="1.1" viewBox="0 0 80.9 104.6" xml:space="preserve" style="enable-background:new 0 0 80.9 104.6"><style type="text/css">.st0{fill:url(#SVGID_1_)}.st1{fill:url(#SVGID_2_)}.st2{fill:url(#SVGID_3_)}.st3{fill:url(#SVGID_4_)}.st4{fill:url(#SVGID_5_)}.st5{fill:url(#SVGID_6_)}.st6{fill:url(#SVGID_7_)}.st7{fill:url(#SVGID_8_)}.st8{fill:url(#SVGID_9_)}.st9{fill:url(#SVGID_10_)}</style><title>Artboard 1</title><g><linearGradient id="SVGID_1_" x1="-3.743" x2="45.305" y1="18.083" y2="90.8" gradientUnits="userSpaceOnUse"><stop offset="0" style="stop-color:#2360b1"/><stop offset=".25" style="stop-color:#256fbf"/><stop offset=".559" style="stop-color:#2360b1"/><stop offset=".8" style="stop-color:#a02d6e"/><stop offset=".9" style="stop-color:#f3506f"/><stop offset="1" style="stop-color:#fcb450"/></linearGradient><path d="M27.4,79.9l7.5,14c5.9-3.7,11.7-7.5,17.4-11.5l-23.5-4.3C27.3,77.8,26.7,78.6,27.4,79.9z" class="st0"/><linearGradient id="SVGID_2_" x1="-26.288" x2="22.76" y1="33.29" y2="106.006" gradientUnits="userSpaceOnUse"><stop offset="0" style="stop-color:#2360b1"/><stop offset=".25" style="stop-color:#256fbf"/><stop offset=".559" style="stop-color:#2360b1"/><stop offset=".8" style="stop-color:#a02d6e"/><stop offset=".9" style="stop-color:#f3506f"/><stop offset="1" style="stop-color:#fcb450"/></linearGradient><path d="M19.1,76.3c-0.3-0.1-1.4,0.6-2.6,1.5L0.2,89.9c-1.7,12.3,8.6,19.3,22.4,11.2c2.6-1.5,5.2-3,7.8-4.5l-9.5-17.9 C20.1,77.4,19.4,76.4,19.1,76.3z" class="st1"/><linearGradient id="SVGID_3_" x1="31.157" x2="80.204" y1="-5.457" y2="67.259" gradientUnits="userSpaceOnUse"><stop offset="0" style="stop-color:#2360b1"/><stop offset=".25" style="stop-color:#256fbf"/><stop offset=".559" style="stop-color:#2360b1"/><stop offset=".8" style="stop-color:#a02d6e"/><stop offset=".9" style="stop-color:#f3506f"/><stop offset="1" style="stop-color:#fcb450"/></linearGradient><path d="M65.6,41.2l-9.6,7.1c-1.2,0.9-1.3,2.4-0.2,3.4L72,67.9c10.1-7.5,11.5-17.7,4.9-26.3l-6.5-1.4 C68.9,39.9,66.8,40.4,65.6,41.2z" class="st2"/><linearGradient id="SVGID_4_" x1="6.219" x2="55.267" y1="11.364" y2="84.08" gradientUnits="userSpaceOnUse"><stop offset="0" style="stop-color:#2360b1"/><stop offset=".25" style="stop-color:#256fbf"/><stop offset=".559" style="stop-color:#2360b1"/><stop offset=".8" style="stop-color:#a02d6e"/><stop offset=".9" style="stop-color:#f3506f"/><stop offset="1" style="stop-color:#fcb450"/></linearGradient><path d="M51.6,54.9c-1-1-2.8-1.1-4-0.3L26.4,70.4c-1.2,0.9-0.9,1.8,0.5,2l31.3,5.8c3.2-2.3,6.4-4.7,9.6-7.2L51.6,54.9z" class="st3"/><linearGradient id="SVGID_5_" x1="24.064" x2="73.112" y1="-.673" y2="72.044" gradientUnits="userSpaceOnUse"><stop offset="0" style="stop-color:#2360b1"/><stop offset=".25" style="stop-color:#256fbf"/><stop offset=".559" style="stop-color:#2360b1"/><stop offset=".8" style="stop-color:#a02d6e"/><stop offset=".9" style="stop-color:#f3506f"/><stop offset="1" style="stop-color:#fcb450"/></linearGradient><path d="M58.4,37.6l-18.7-4.1c-1.4-0.3-1.7,0.3-0.7,1.3l9.4,9.4c1,1,2.8,1.1,4,0.3l6.5-4.8 C60,38.9,59.8,37.9,58.4,37.6z" class="st4"/><linearGradient id="SVGID_6_" x1="4.579" x2="53.627" y1="12.47" y2="85.186" gradientUnits="userSpaceOnUse"><stop offset="0" style="stop-color:#2360b1"/><stop offset=".25" style="stop-color:#256fbf"/><stop offset=".559" style="stop-color:#2360b1"/><stop offset=".8" style="stop-color:#a02d6e"/><stop offset=".9" style="stop-color:#f3506f"/><stop offset="1" style="stop-color:#fcb450"/></linearGradient><path d="M21.5,24.8L1.8,5.1c-2.4,4-2.6,10.1,0.6,17l18.4,4C22.2,26.4,22.5,25.9,21.5,24.8z" class="st5"/><linearGradient id="SVGID_7_" x1="-16.564" x2="32.483" y1="26.731" y2="99.448" gradientUnits="userSpaceOnUse"><stop offset="0" style="stop-color:#2360b1"/><stop offset=".25" style="stop-color:#256fbf"/><stop offset=".559" style="stop-color:#2360b1"/><stop offset=".8" style="stop-color:#a02d6e"/><stop offset=".9" style="stop-color:#f3506f"/><stop offset="1" style="stop-color:#fcb450"/></linearGradient><path d="M15.2,68.2L6.6,52c0,5.5-0.4,11-1.2,16.4l8.4,1.6C15.3,70.3,15.9,69.5,15.2,68.2z" class="st6"/><linearGradient id="SVGID_8_" x1="24.221" x2="73.269" y1="-.779" y2="71.937" gradientUnits="userSpaceOnUse"><stop offset="0" style="stop-color:#2360b1"/><stop offset=".25" style="stop-color:#256fbf"/><stop offset=".559" style="stop-color:#2360b1"/><stop offset=".8" style="stop-color:#a02d6e"/><stop offset=".9" style="stop-color:#f3506f"/><stop offset="1" style="stop-color:#fcb450"/></linearGradient><path d="M35.4,29.3L61.9,35c1.4,0.3,3.5-0.1,4.7-1l0.9-0.7C53,22.3,38.6,12.3,22.5,3.5c-6.9-4.1-12.9-4.3-17-2L31,26.9 C32,27.9,34,29,35.4,29.3z" class="st7"/><linearGradient id="SVGID_9_" x1="-24.665" x2="24.383" y1="32.195" y2="104.912" gradientUnits="userSpaceOnUse"><stop offset="0" style="stop-color:#2360b1"/><stop offset=".25" style="stop-color:#256fbf"/><stop offset=".559" style="stop-color:#2360b1"/><stop offset=".8" style="stop-color:#a02d6e"/><stop offset=".9" style="stop-color:#f3506f"/><stop offset="1" style="stop-color:#fcb450"/></linearGradient><path d="M9,74.4l-4.4-0.8c-0.5,2.7-1.1,5.3-1.9,7.9l6.7-5C10.6,75.6,10.4,74.7,9,74.4z" class="st8"/><linearGradient id="SVGID_10_" x1="2.98" x2="52.028" y1="13.549" y2="86.265" gradientUnits="userSpaceOnUse"><stop offset="0" style="stop-color:#2360b1"/><stop offset=".25" style="stop-color:#256fbf"/><stop offset=".559" style="stop-color:#2360b1"/><stop offset=".8" style="stop-color:#a02d6e"/><stop offset=".9" style="stop-color:#f3506f"/><stop offset="1" style="stop-color:#fcb450"/></linearGradient><path d="M19.8,65.6c0.7,1.3,2.2,1.6,3.3,0.7l20.8-15.5c1.2-0.9,1.3-2.4,0.2-3.4L29.5,32.8c-1-1-3-2.1-4.4-2.4L3.4,25.7 c1.1,4.5,1.9,9.1,2.5,13.8L19.8,65.6z" class="st9"/></g></svg>